<?xml version="1.0" standalone="no"?>
<!DOCTYPE svg PUBLIC "-//W3C//DTD SVG 20010904//EN"
 "http://www.w3.org/TR/2001/REC-SVG-20010904/DTD/svg10.dtd">
<svg version="1.0" xmlns="http://www.w3.org/2000/svg"
 width="512.000000pt" height="512.000000pt" viewBox="0 0 512.000000 512.000000"
 preserveAspectRatio="xMidYMid meet">
<metadata>
Created by potrace 1.11, written by Peter Selinger 2001-2013
</metadata>
<g transform="translate(0.000000,512.000000) scale(0.100000,-0.100000)"
fill="#000000" stroke="none">
<path d="M10 4177 c-1 -65 -1 -3234 0 -3264 l0 -22 425 0 425 0 1 32 c0 18 0
530 0 1140 1 609 3 1107 5 1107 7 0 91 -136 100 -162 4 -10 9 -18 13 -18 4 0
18 -22 32 -50 13 -27 27 -50 32 -50 4 0 7 -4 7 -10 0 -5 17 -36 37 -67 53 -83
73 -116 79 -135 4 -10 10 -18 14 -18 4 0 11 -8 14 -17 9 -25 32 -64 43 -72 4
-3 19 -27 32 -53 25 -50 82 -144 101 -165 5 -7 10 -15 10 -19 0 -3 29 -53 65
-111 36 -57 65 -108 65 -113 0 -5 8 -14 18 -19 9 -6 14 -11 10 -11 -4 0 20
-44 53 -97 32 -54 63 -105 68 -113 5 -8 42 -69 81 -135 40 -66 82 -136 95
-155 47 -75 59 -95 56 -99 -1 -2 1 -7 6 -10 5 -3 26 -35 48 -71 21 -36 53 -88
71 -117 19 -28 34 -56 34 -62 0 -6 5 -11 10 -11 6 0 10 -4 10 -10 0 -5 20 -41
44 -79 25 -38 42 -72 39 -75 -4 -3 -2 -6 4 -6 6 0 16 -13 23 -30 7 -16 16 -30
21 -30 5 0 9 -5 9 -10 0 -6 10 -26 22 -45 l23 -34 306 0 306 1 34 56 c18 31
37 59 41 60 5 2 8 7 8 12 0 7 44 83 110 190 54 87 248 411 259 433 8 15 18 27
23 27 4 0 8 6 8 14 0 8 6 21 13 28 6 8 19 26 27 41 16 30 204 340 233 385 9
15 20 35 23 45 4 9 10 17 14 17 7 0 18 29 18 47 0 3 5 9 11 12 16 10 170 269
163 275 -3 3 0 6 6 6 11 0 44 52 41 66 0 4 4 10 9 13 9 6 21 24 72 111 11 19
32 53 46 75 14 22 27 48 31 58 3 9 9 17 14 17 5 0 9 7 9 15 0 8 5 15 11 15 5
0 7 5 4 10 -3 6 -2 10 3 10 5 0 15 14 22 31 7 17 18 36 24 42 6 7 22 32 35 57
14 25 27 47 30 50 3 3 12 17 20 32 8 16 17 25 20 22 3 -3 7 -513 7 -1132 1
-620 2 -1130 3 -1134 0 -4 192 -7 426 -6 l425 0 0 1668 0 1668 -578 1 -577 0
-35 -62 c-19 -34 -36 -68 -38 -74 -2 -7 -8 -13 -13 -13 -5 0 -9 -5 -9 -11 0
-6 -9 -24 -21 -40 -11 -16 -17 -29 -12 -29 4 0 0 -5 -9 -11 -10 -5 -18 -17
-18 -24 0 -8 -5 -15 -12 -15 -6 0 -8 -3 -5 -7 4 -3 1 -13 -5 -21 -7 -8 -17
-22 -23 -32 -5 -10 -26 -45 -45 -77 -19 -32 -33 -61 -32 -65 1 -5 -3 -8 -8 -8
-6 0 -15 -11 -20 -24 -5 -13 -40 -75 -79 -139 -39 -63 -71 -119 -71 -126 0 -6
-4 -11 -10 -11 -5 0 -10 -7 -10 -15 0 -8 -5 -15 -12 -15 -6 0 -8 -3 -5 -7 4
-3 1 -13 -7 -22 -12 -15 -140 -229 -175 -296 -9 -16 -19 -32 -22 -35 -5 -4
-137 -227 -198 -333 -13 -23 -28 -45 -33 -48 -5 -3 -9 -8 -8 -10 4 -8 -24 -59
-32 -59 -4 0 -8 -5 -8 -10 0 -6 -34 -67 -76 -138 -43 -70 -88 -147 -102 -172
-14 -25 -33 -57 -43 -72 -11 -14 -19 -31 -19 -37 0 -6 -4 -11 -10 -11 -5 0
-10 -6 -10 -14 0 -7 -8 -24 -19 -37 -10 -13 -31 -46 -45 -74 -48 -87 -81 -138
-93 -142 -7 -3 -21 10 -32 29 -11 18 -24 38 -30 44 -5 7 -7 15 -4 18 4 3 1 6
-5 6 -7 0 -12 5 -12 10 0 6 -11 29 -26 51 -14 22 -33 55 -43 72 -10 18 -86
146 -170 286 -83 139 -151 257 -151 262 0 5 -4 9 -10 9 -5 0 -10 5 -10 12 0 7
-11 28 -24 47 -42 63 -254 426 -254 435 0 5 -5 12 -10 15 -6 3 -29 40 -53 81
-23 41 -45 77 -48 80 -3 3 -13 19 -21 35 -8 17 -27 49 -42 72 -15 23 -28 46
-28 52 0 6 -4 11 -8 11 -5 0 -14 16 -22 35 -8 19 -18 35 -22 35 -5 0 -6 5 -3
10 3 6 2 10 -4 10 -5 0 -13 10 -17 22 -6 21 -13 31 -42 63 -7 8 -11 15 -8 15
4 0 -5 18 -19 40 -14 22 -25 43 -25 47 0 3 -6 14 -14 22 -18 20 -65 101 -73
124 -3 9 -9 17 -13 17 -4 0 -13 14 -20 30 -7 17 -17 30 -22 30 -5 0 -7 4 -3 9
3 5 -2 16 -10 24 -8 9 -15 18 -15 20 0 3 -19 38 -43 79 l-44 73 -576 2 -577 2
0 -52z"/>
</g>
</svg>
