<?xml version="1.0" standalone="no"?>
<!DOCTYPE svg PUBLIC "-//W3C//DTD SVG 20010904//EN"
 "http://www.w3.org/TR/2001/REC-SVG-20010904/DTD/svg10.dtd">
<svg version="1.0" xmlns="http://www.w3.org/2000/svg"
 width="512.000000pt" height="512.000000pt" viewBox="0 0 512.000000 512.000000"
 preserveAspectRatio="xMidYMid meet">
<metadata>
Created by potrace 1.16, written by Peter Selinger 2001-2019
</metadata>
<g transform="translate(0.000000,512.000000) scale(0.100000,-0.100000)"
fill="#000000" stroke="none">
<path d="M115 4241 c-43 -11 -73 -29 -85 -51 -14 -26 -14 -3294 0 -3321 6 -10
25 -27 43 -36 29 -16 72 -18 412 -21 255 -2 397 0 431 8 55 12 95 45 113 93 8
19 11 306 12 885 0 471 4 865 8 876 6 17 9 16 26 -10 15 -23 593 -975 1002
-1651 80 -133 122 -176 184 -193 27 -8 138 -10 323 -8 306 3 311 4 368 65 14
15 150 233 301 483 152 250 392 648 535 885 143 236 265 431 271 433 7 2 11
-256 13 -870 3 -827 4 -875 22 -910 10 -21 35 -48 55 -60 36 -23 38 -23 441
-23 223 0 417 3 431 7 14 4 38 19 52 32 l27 25 0 1651 0 1651 -27 25 c-14 13
-38 28 -52 32 -14 4 -273 7 -576 7 l-550 0 -41 -24 c-26 -14 -56 -46 -81 -85
-22 -33 -303 -503 -623 -1043 -320 -541 -586 -983 -590 -983 -4 0 -281 460
-615 1023 -334 562 -619 1035 -634 1050 -59 64 -33 62 -626 64 -297 1 -553 -2
-570 -6z"/>
</g>
</svg>
